<?xml version="1.0" encoding="iso-8859-1"?>
<!-- Generator: Adobe Illustrator 19.0.0, SVG Export Plug-In . SVG Version: 6.00 Build 0)  -->
<svg version="1.1" id="Capa_1" xmlns="http://www.w3.org/2000/svg" xmlns:xlink="http://www.w3.org/1999/xlink" x="0px" y="0px"
	 viewBox="0 0 512 512" style="enable-background:new 0 0 512 512;" xml:space="preserve">
<path style="fill:#FF6849;" d="M297,512c-79.409,0-152.063-43.514-189.61-113.562l291.064-291.04
	C468.491,144.948,512,217.599,512,297c0,34.944-8.545,69.474-24.757,100.216l18.005,108.032l-108.031-18.005
	C366.476,503.455,331.945,512,297,512z"/>
<path style="fill:#FD4B2D;" d="M512,297c0-79.401-43.509-152.052-113.546-189.602L297,208.844V512
	c34.945,0,69.476-8.545,100.217-24.757l108.031,18.005l-18.005-108.032C503.455,366.474,512,331.944,512,297z"/>
<path style="fill:#EDEDF9;" d="M215,430c-34.945,0-69.476-8.545-100.217-24.757L6.752,423.248l18.005-108.032
	C8.545,284.474,0,249.944,0,215c0-57.429,22.364-111.42,62.972-152.028S157.571,0,215,0s111.42,22.364,152.028,62.972
	C407.636,103.58,430,157.571,430,215s-22.364,111.42-62.972,152.028C326.42,407.636,272.429,430,215,430z"/>
<path style="fill:#E1E4FB;" d="M367.028,62.972C326.42,22.364,272.429,0,215,0v430c57.429,0,111.42-22.364,152.028-62.972
	C407.636,326.42,430,272.429,430,215S407.636,103.58,367.028,62.972z"/>
<path style="fill:#0A4EAF;" d="M170,190c-11.028,0-20-8.972-20-20s8.972-20,20-20s20,8.972,20,20S181.028,190,170,190z"/>
<path style="fill:#063E8B;" d="M260,280c-11.028,0-20-8.972-20-20s8.972-20,20-20c11.028,0,20,8.972,20,20
	C280,271.028,271.028,280,260,280z"/>
<rect x="199.997" y="130.142" transform="matrix(-0.7071 -0.7071 0.7071 -0.7071 214.9964 519.0475)" style="fill:#0A4EAF;" width="30" height="169.708"/>
<polygon style="fill:#063E8B;" points="215,236.213 285.606,165.607 264.394,144.393 215,193.787 "/>
<g>
</g>
<g>
</g>
<g>
</g>
<g>
</g>
<g>
</g>
<g>
</g>
<g>
</g>
<g>
</g>
<g>
</g>
<g>
</g>
<g>
</g>
<g>
</g>
<g>
</g>
<g>
</g>
<g>
</g>
</svg>
